<?xml version="1.0" encoding="UTF-8"?>
<svg width="168px" height="30px" viewBox="0 0 168 30" version="1.1" xmlns="http://www.w3.org/2000/svg" xmlns:xlink="http://www.w3.org/1999/xlink">
    <title>Combined Shape</title>
    <defs>
        <linearGradient x1="100%" y1="50.8579672%" x2="-1.11022302e-14%" y2="48.4056122%" id="linearGradient-1">
            <stop stop-color="#53B1E7" offset="0%"></stop>
            <stop stop-color="#75D5FF" offset="100%"></stop>
        </linearGradient>
    </defs>
    <g id="Page-1" stroke="none" stroke-width="1" fill="none" fill-rule="evenodd">
        <path d="M13.0997615,0 C16.2614405,0 18.897091,1.01045455 21.005336,3.03 C21.2766125,1.35136364 22.1799493,0.512727273 23.7153466,0.512727273 C25.58261,0.512727273 26.5162417,1.36636364 26.5162417,3.07363636 C26.5162417,3.35863636 26.455652,3.92727273 26.3358497,4.78090909 C26.1554577,6.06136364 26.0645732,6.92863636 26.0645732,7.38409091 C26.0645732,7.89681818 26.093491,8.28 26.1554577,8.53636364 C26.2160474,9.44727273 26.2463422,9.96 26.2463422,10.0731818 C26.2463422,10.8136364 25.8993287,11.4313636 25.2066786,11.9290909 C24.5140286,12.4268182 23.6258391,12.6763636 22.5407333,12.6763636 C20.7932722,12.6763636 19.7398382,11.865 19.3790543,10.2436364 C19.0182703,8.62227273 18.49775,7.50545455 17.8202474,6.89318182 C17.1427447,6.28227273 16.0659011,5.97545455 14.5897165,5.97545455 C12.6315686,5.97545455 11.1182039,6.83590909 10.0496225,8.55681818 C8.9796641,10.2790909 8.44675044,12.7172727 8.44675044,15.8754545 C8.44675044,18.5495455 8.96589372,20.6331818 10.0055573,22.1277273 C11.0452209,23.6209091 12.4828485,24.3681818 14.3198171,24.3681818 C15.4944304,24.3681818 16.4652421,24.0477273 17.2336292,23.4081818 C18.0020164,22.7686364 18.3862099,21.9640909 18.3862099,20.9972727 C18.3862099,19.8013636 17.8588044,19.2040909 16.8053704,19.2040909 L16.534094,19.2040909 C16.4129146,19.2327273 16.3082598,19.2463636 16.2173753,19.2463636 C15.735412,19.3036364 15.4641355,19.3309091 15.4049229,19.3309091 C14.8017803,19.3309091 14.2908993,19.0827273 13.8695257,18.5836364 C13.446775,18.0859091 13.2374653,17.4681818 13.2374653,16.7277273 C13.2374653,15.8740909 13.5390366,15.1909091 14.1408021,14.6795455 C14.7425677,14.1681818 15.5261022,13.9118182 16.4900288,13.9118182 C17.1220892,13.9118182 18.0777535,13.9909091 19.3583987,14.1463636 C20.6376669,14.3031818 21.6098557,14.3809091 22.2722109,14.3809091 C23.2664322,14.3809091 24.3653085,14.295 25.5702166,14.1204545 C26.5341432,13.9827273 27.1964984,13.9118182 27.5572823,13.9118182 C28.2525282,13.9118182 28.8496319,14.0544064 29.3485935,14.3385595 C29.8419698,12.6995267 30.6605676,11.3122751 31.8026901,10.1781818 C33.8200507,8.17227273 36.6512406,7.17 40.2948828,7.17 C43.8779354,7.17 46.7022401,8.16545455 48.7650429,10.1563636 C50.1098082,11.4551495 51.0162393,13.0680408 51.4843364,14.9950375 C51.9486199,13.0661022 52.8263426,11.4603507 54.1175892,10.1781818 C56.1349497,8.17227273 58.9661396,7.17 62.6097819,7.17 C66.1928345,7.17 69.0171392,8.16545455 71.079942,10.1563636 C72.4303121,11.4605627 73.3386866,13.081491 73.8050655,15.0191485 C74.2223682,13.2860709 74.9706006,11.7928238 76.0482947,10.5395455 C77.8109032,8.49136364 80.1215728,7.46727273 82.9830575,7.46727273 C85.2716945,7.46727273 87.3799395,8.30727273 89.3077926,9.98454545 L89.3077926,6.91363636 C89.3077926,5.88954545 88.9304842,5.37681818 88.1786215,5.37681818 C87.9982295,5.37681818 87.6360686,5.40545455 87.0948927,5.46136364 C86.7038139,5.57590909 86.3113581,5.63181818 85.9202793,5.63181818 C85.3474316,5.63181818 84.8654683,5.40409091 84.4743896,4.94863636 C84.0819338,4.49318182 83.8877714,3.92454545 83.8877714,3.24136364 C83.8877714,1.42090909 84.9109106,0.51 86.959943,0.51 C87.6222982,0.51 88.1042614,0.525 88.4058327,0.552272727 C89.6093639,0.666818182 90.4231933,0.722727273 90.8445668,0.722727273 C91.2356456,0.722727273 91.8084934,0.687272727 92.5603561,0.616363636 C93.3135958,0.545454545 93.8699191,0.51 94.2320801,0.51 C94.9853198,0.51 95.5044631,0.675 95.790887,1.00363636 C96.0773108,1.33363636 96.2205228,1.94045455 96.2205228,2.82681818 L96.2205228,22.35 C96.2205228,23.8090909 96.5069467,24.5372727 97.0784174,24.5372727 C97.2588094,24.5372727 97.4846436,24.4772727 97.75592,24.3572727 C97.936312,24.2781818 98.1772936,24.2386364 98.4788649,24.2386364 C98.8015895,24.2386364 99.0841687,24.2837312 99.3265598,24.3739208 C98.4593296,22.7565022 98.0271965,20.86139 98.0271965,18.69 C98.0271965,15.2481818 99.0888927,12.4677273 101.212285,10.3472727 C103.335678,8.22818182 106.11454,7.16863636 109.547496,7.16863636 C112.739469,7.16863636 115.291121,8.03727273 117.203826,9.77181818 C118.751742,11.1786818 119.673762,12.9679971 119.967688,15.1404898 C120.460835,13.2806676 121.377134,11.6830204 122.714732,10.3472727 C124.838124,8.22818182 127.61561,7.16863636 131.048565,7.16863636 C134.240539,7.16863636 136.79219,8.03727273 138.706273,9.77181818 C140.185762,11.1164902 141.092642,12.810548 141.426274,14.8546253 C141.849551,13.1918309 142.584206,11.7531754 143.627806,10.5395455 C145.389038,8.49136364 147.699707,7.46727273 150.561192,7.46727273 C152.849829,7.46727273 154.958074,8.30727273 156.885927,9.98454545 L156.885927,6.91363636 C156.885927,5.88954545 156.508619,5.37681818 155.756756,5.37681818 C155.576364,5.37681818 155.214203,5.40545455 154.673027,5.46136364 C154.280571,5.57590909 153.889493,5.63181818 153.498414,5.63181818 C152.925566,5.63181818 152.443603,5.40409091 152.052524,4.94863636 C151.660068,4.49318182 151.465906,3.92454545 151.465906,3.24136364 C151.465906,1.42090909 152.489045,0.51 154.538078,0.51 C155.200433,0.51 155.682396,0.525 155.983967,0.552272727 C157.187498,0.666818182 158.001328,0.722727273 158.422701,0.722727273 C158.81378,0.722727273 159.386628,0.687272727 160.138491,0.616363636 C160.89173,0.545454545 161.448054,0.51 161.810215,0.51 C162.563454,0.51 163.082598,0.675 163.369022,1.00363636 C163.655445,1.33363636 163.798657,1.94045455 163.798657,2.82681818 L163.798657,22.35 C163.798657,23.8090909 164.085081,24.5372727 164.656552,24.5372727 C164.836944,24.5372727 165.062778,24.4772727 165.334055,24.3572727 C165.514447,24.2781818 165.755428,24.2386364 166.057,24.2386364 C167.351415,24.2386364 168,24.9640909 168,26.415 C168,27.2972727 167.774166,28.0159091 167.322497,28.5709091 C166.870829,29.1259091 166.267686,29.4027273 165.515824,29.4027273 L165.244547,29.4027273 L163.663708,29.1463636 C163.301547,29.0890909 162.789289,29.0604545 162.12831,29.0604545 C161.344776,29.0604545 160.697568,29.0890909 160.18531,29.1463636 C159.43207,29.2322727 159.025844,29.2745455 158.965254,29.2745455 C158.031623,29.2745455 157.564807,28.7631818 157.564807,27.7390909 L157.564807,26.16 C155.997738,28.6922727 153.649888,29.9577273 150.517127,29.9577273 C147.746527,29.9577273 145.464775,28.8845455 143.673249,26.7354545 C141.995203,24.7253161 141.103637,22.2230366 140.996292,19.2274983 C140.65849,19.5514225 140.066715,19.7140909 139.224039,19.7140909 L128.202228,19.7140909 C127.659675,19.7140909 127.320924,19.7645455 127.185974,19.8640909 C127.051024,19.9636364 126.982172,20.2131818 126.982172,20.6113636 C126.982172,21.8059091 127.388398,22.8027273 128.202228,23.5977273 C129.01468,24.3954545 130.039196,24.7936364 131.274399,24.7936364 C132.53852,24.7936364 133.834313,24.1390909 135.159023,22.83 C136.06236,21.9190909 137.055204,21.4636364 138.14031,21.4636364 C139.043647,21.4636364 139.773477,21.7063636 140.331178,22.1890909 C140.888878,22.6731818 141.16704,23.2840909 141.16704,24.0231818 C141.16704,25.6745455 140.209998,27.075 138.29867,28.2272727 C136.385964,29.3795455 134.060147,29.9563636 131.319842,29.9563636 C127.735412,29.9563636 124.873927,28.9322727 122.736764,26.8840909 C120.702054,24.9353513 119.635928,22.3681584 119.5372,19.1825121 L119.595741,19.1168182 C119.279022,19.515 118.653847,19.7140909 117.721592,19.7140909 L106.699781,19.7140909 C106.157228,19.7140909 105.818477,19.7645455 105.683527,19.8640909 C105.548577,19.9636364 105.479726,20.2131818 105.479726,20.6113636 C105.479726,21.8059091 105.885952,22.8027273 106.699781,23.5977273 C107.512234,24.3954545 108.53675,24.7936364 109.771953,24.7936364 C111.036073,24.7936364 112.331866,24.1390909 113.656577,22.83 C114.559913,21.9190909 115.554135,21.4636364 116.637864,21.4636364 C117.5412,21.4636364 118.271031,21.7063636 118.828731,22.1890909 C119.386431,22.6731818 119.664593,23.2840909 119.664593,24.0231818 C119.664593,25.6745455 118.708929,27.075 116.796223,28.2272727 C114.883517,29.3795455 112.5577,29.9563636 109.817395,29.9563636 C106.232965,29.9563636 103.372858,28.9322727 101.234318,26.8840909 C100.934756,26.5971861 100.656188,26.296876 100.398611,25.9831606 C100.414705,26.118108 100.421865,26.2625494 100.421865,26.415 C100.421865,27.2972727 100.196031,28.0159091 99.7443628,28.5709091 C99.2926943,29.1259091 98.6895517,29.4027273 97.937689,29.4027273 L97.6664126,29.4027273 L96.0855731,29.1463636 C95.7234121,29.0890909 95.211154,29.0604545 94.5487988,29.0604545 C93.7652642,29.0604545 93.1180564,29.0890909 92.6057983,29.1463636 C91.8525586,29.2322727 91.4463324,29.2745455 91.3857427,29.2745455 C90.452111,29.2745455 89.9852952,28.7631818 89.9852952,27.7390909 L89.9852952,26.16 C88.4182261,28.6922727 86.0689994,29.9577273 82.9376153,29.9577273 C80.167015,29.9577273 77.8852632,28.8845455 76.0937369,26.7354545 C74.965473,25.3839019 74.1927595,23.8098629 73.77491,22.0129977 C73.3121093,23.9591425 72.4438025,25.5832523 71.1708265,26.8854545 C69.1672363,28.9336364 66.3746035,29.9577273 62.7901739,29.9577273 C59.0556471,29.9577273 56.1721297,28.9622727 54.1396218,26.97 C52.8111197,25.6686881 51.9167901,24.0201561 51.4566328,22.0255464 C50.9934853,23.9657612 50.1258057,25.5859063 48.8545504,26.8854545 C46.8509602,28.9336364 44.0583274,29.9577273 40.4752748,29.9577273 C36.740748,29.9577273 33.8572307,28.9622727 31.8247227,26.97 C30.0264133,25.2084961 29.0236522,22.8107694 28.8164396,19.7796534 C28.7308361,19.7930148 28.6422485,19.7986364 28.5515037,19.7986364 L27.4663978,19.7986364 C26.6539455,19.7986364 26.2477193,20.4436364 26.2477193,21.735 C26.2477193,22.2804545 26.2628667,22.8545455 26.2931615,23.4572727 L26.384046,25.3077273 C26.4143409,25.9390909 26.4294883,26.5418182 26.4294883,27.1159091 C26.4294883,29.0372727 25.3154646,29.9986364 23.0874173,29.9986364 C20.9791723,29.9986364 19.9257383,29.3004545 19.9257383,27.9068182 L19.9257383,27.6504545 C17.843657,29.2186364 15.479283,30 12.828485,30 C10.5095532,30 8.3255711,29.4245455 6.27791575,28.2722727 C4.23026041,27.12 2.73892837,25.62 1.80529668,23.7695455 C0.601765559,21.4077273 0,18.6627273 0,15.5331818 C0,10.7536364 1.17461332,6.96954545 3.52383997,4.18227273 C5.87306661,1.39363636 9.06366341,0 13.0997615,0 Z M62.632503,12.2727273 C61.3064155,12.2727273 60.2612438,12.8209091 59.4928566,13.9159091 C58.7244695,15.0109091 58.3402759,16.5122727 58.3402759,18.4172727 C58.3402759,20.3522727 58.7244695,21.8604545 59.4928566,22.9404545 C60.2612438,24.0218182 61.3367104,24.5618182 62.7233875,24.5618182 C65.5242826,24.5618182 66.9247301,22.5136364 66.9247301,18.4159091 C66.9247301,14.3181818 65.4926107,12.2727273 62.632503,12.2727273 Z M40.0952123,12.2727273 C38.7691248,12.2727273 37.7239531,12.8209091 36.9555659,13.9159091 C36.1871788,15.0109091 35.8029852,16.5122727 35.8029852,18.4172727 C35.8029852,20.3522727 36.1871788,21.8604545 36.9555659,22.9404545 C37.7239531,24.0218182 38.7994197,24.5618182 40.1860968,24.5618182 C42.9869919,24.5618182 44.3874394,22.5136364 44.3874394,18.4159091 C44.3874394,14.3181818 42.95532,12.2727273 40.0952123,12.2727273 Z M152.143409,12.8454545 C151.028008,12.8454545 150.117786,13.3431818 149.409988,14.3386364 C148.702191,15.3354545 148.30285,16.6854545 148.213343,18.3927273 L148.213343,18.9477273 C148.213343,20.6836364 148.565864,22.0486364 149.275039,23.0440909 C149.981459,24.0409091 150.938501,24.5386364 152.143409,24.5386364 C153.468119,24.5386364 154.544963,23.9986364 155.372563,22.9172727 C156.200162,21.8359091 156.614651,20.4 156.614651,18.6068182 C156.614651,16.8722727 156.208425,15.4772727 155.394595,14.4245455 C154.582143,13.3718182 153.498414,12.8454545 152.143409,12.8454545 Z M84.563897,12.8454545 C83.4484963,12.8454545 82.5382743,13.3431818 81.8304768,14.3386364 C81.1226793,15.3354545 80.7247154,16.6854545 80.6338309,18.3927273 L80.6338309,18.9477273 C80.6338309,20.6836364 80.9877296,22.0486364 81.6955271,23.0440909 C82.4033246,24.0409091 83.3589889,24.5386364 84.563897,24.5386364 C85.8886075,24.5386364 86.9654511,23.9986364 87.7930509,22.9172727 C88.6206507,21.8359091 89.0351391,20.4 89.0351391,18.6068182 C89.0351391,16.8722727 88.6289129,15.4772727 87.8150835,14.4245455 C87.0026311,13.3718182 85.9189023,12.8454545 84.563897,12.8454545 Z M130.865419,11.7368182 C129.660511,11.7368182 128.681437,12.1786364 127.929574,13.0595455 C127.447611,13.6281818 127.206629,14.1395455 127.206629,14.595 C127.206629,14.7654545 127.252072,14.9086364 127.341579,15.0218182 C127.432464,15.135 127.747805,15.1922727 128.290358,15.1922727 L133.349595,15.1922727 C133.801264,15.1922727 134.079426,15.1431818 134.185457,15.0436364 C134.290112,14.9440909 134.343817,14.7654545 134.343817,14.5104545 C134.343817,13.7713636 133.996803,13.1236364 133.304153,12.5686364 C132.611503,12.0136364 131.797674,11.7368182 130.865419,11.7368182 Z M109.365727,11.7368182 C108.160818,11.7368182 107.181744,12.1786364 106.429882,13.0595455 C105.946541,13.6281818 105.70556,14.1395455 105.70556,14.595 C105.70556,14.7654545 105.751002,14.9086364 105.84051,15.0218182 C105.931394,15.135 106.246736,15.1922727 106.789289,15.1922727 L111.848526,15.1922727 C112.300194,15.1922727 112.578356,15.1431818 112.684388,15.0436364 C112.789043,14.9440909 112.842747,14.7654545 112.842747,14.5104545 C112.842747,13.7713636 112.497111,13.1236364 111.804461,12.5686364 C111.111811,12.0136364 110.297981,11.7368182 109.365727,11.7368182 Z" id="Combined-Shape" fill="url(#linearGradient-1)"></path>
    </g>
</svg>